<?xml version="1.0" encoding="utf-8"?>
<!-- Generator: Adobe Illustrator 16.0.0, SVG Export Plug-In . SVG Version: 6.00 Build 0)  -->
<!DOCTYPE svg PUBLIC "-//W3C//DTD SVG 1.1//EN" "http://www.w3.org/Graphics/SVG/1.1/DTD/svg11.dtd">
<svg version="1.1" id="Calque_3" xmlns="http://www.w3.org/2000/svg" xmlns:xlink="http://www.w3.org/1999/xlink" x="0px" y="0px"
	 width="141.732px" height="141.732px" viewBox="-24.866 -11.866 141.732 141.732"
	 enable-background="new -24.866 -11.866 141.732 141.732" xml:space="preserve">
<g>
	<polygon fill-rule="evenodd" clip-rule="evenodd" fill="#010101" points="-7.295,9.78 16.338,-10.727 99.295,-10.75 
		99.295,109.265 78.983,129.271 -7.295,129.271 	"/>
	<path fill-rule="evenodd" clip-rule="evenodd" fill="#F1E444" d="M75.749,124.521l-77.5,0.102c0,0-0.012-75.013,0.06-110.962
		c2.112-1.989,4.789-1.906,7.39-1.913c20.907-0.063,41.813-0.06,62.722-0.002c2.602,0.006,5.263-0.066,7.53,1.602
		c2.011,2.62,1.709,5.725,1.714,8.718c0.044,31.446-0.002,94.341-0.002,94.341L75.749,124.521z"/>
	<path fill-rule="evenodd" clip-rule="evenodd" fill="#7F7F00" d="M94.872-2.111l-0.051,108.773l-14.114,13.742l-2.75-5.345
		c0,0-0.398-66.93,0.177-100.381C81.045,6.761,94.872-2.111,94.872-2.111z"/>
	<path fill-rule="evenodd" clip-rule="evenodd" fill="#F1E444" d="M1.947,8.441L18.206-5.622c0,0,48.781-0.218,72.872-0.152
		C89.721,1.232,80.116,10.202,73.095,10.3c-21.887,0.307-43.778,0.186-65.668,0.054C5.435,10.343,1.947,8.441,1.947,8.441z"/>
	<path fill-rule="evenodd" clip-rule="evenodd" fill="#CBCBC9" d="M80.555,12.13c0.063,36.291,0.172,108.274,0.172,108.274
		l-4.983,4.111c0,0-0.035-73.965-0.063-111.022C76.968,11.837,78.589,11.368,80.555,12.13z"/>
	<path fill-rule="evenodd" clip-rule="evenodd" fill="#FEFDFC" d="M80.399,12.24c-1.625,0.454-3.25,0.909-4.875,1.363
		C49.76,13.547-1.768,13.435-1.768,13.435l3.714-4.992l71.431,0.164l5.965-2.2l11.737-12.18l3.789,3.622
		C94.868-2.152,85.222,7.443,80.399,12.24z"/>
	<path fill-rule="evenodd" clip-rule="evenodd" fill="#808000" d="M7.849,66.642c-3.389,0.625-5.159-0.117-5.087-4.233
		C2.989,49.332,2.92,36.247,2.801,23.167c-0.033-3.674,1.444-4.951,5.03-4.935c19.521,0.094,39.044,0.148,58.563-0.04
		c4.103-0.041,4.871,1.669,4.234,5.069c-1.497,1.477-3.421,1.52-5.333,1.606c-15.902,0.414-31.811,0.053-47.718,0.196
		c-7.486,0.067-7.834,0.44-7.933,7.841c-0.125,9.462,0.224,18.927-0.177,28.39C9.396,63.219,9.343,65.149,7.849,66.642z"/>
	<path fill-rule="evenodd" clip-rule="evenodd" fill="#808001" d="M7.822,120.026c-3.407,0.63-5.135-0.161-5.063-4.25
		c0.229-13.074,0.159-26.156,0.04-39.232c-0.033-3.668,1.431-4.955,5.021-4.939c19.516,0.096,39.032,0.143,58.547-0.037
		c4.06-0.036,4.929,1.607,4.251,5.055c-1.497,1.479-3.426,1.501-5.335,1.591c-15.909,0.412-31.821,0.054-47.733,0.196
		c-7.466,0.067-7.808,0.438-7.904,7.869c-0.124,9.466,0.226,18.935-0.179,28.4C9.404,116.61,9.297,118.531,7.822,120.026z"/>
	<path fill-rule="evenodd" clip-rule="evenodd" fill="#010100" d="M65.9,76.572c1.572,0.017,3.146,0.033,4.718,0.05
		c0.057,12.905,0.021,25.811,0.226,38.712c0.059,3.701-1.299,4.939-4.948,4.907c-19.356-0.171-38.716-0.161-58.073-0.215
		c-0.008-1.574-0.016-3.15-0.024-4.727c2.524-2.243,5.648-1.889,8.641-1.903c13.317-0.06,26.636,0.026,39.953-0.045
		c7.143-0.038,7.538-0.466,7.607-7.544c0.068-7.063-0.031-14.125,0.042-21.188C64.07,81.822,63.807,78.914,65.9,76.572z"/>
	<path fill-rule="evenodd" clip-rule="evenodd" fill="#010100" d="M65.907,23.212c1.573,0.017,3.146,0.033,4.722,0.048
		c0.052,12.899,0.013,25.798,0.214,38.694c0.057,3.7-1.295,4.928-4.947,4.896c-19.349-0.172-38.698-0.158-58.047-0.209
		c-0.017-1.575-0.034-3.15-0.051-4.727c2.538-2.218,5.664-1.851,8.654-1.864c13.318-0.059,26.638,0.025,39.956-0.046
		c7.134-0.037,7.523-0.46,7.591-7.556c0.067-7.063-0.03-14.125,0.041-21.188C64.068,28.458,63.819,25.554,65.907,23.212z"/>
	<path fill-rule="evenodd" clip-rule="evenodd" fill="#F3E771" d="M65.907,23.212c0.002,11.485-0.125,22.973,0.086,34.454
		c0.063,3.47-1.026,4.358-4.397,4.329c-17.932-0.157-35.866-0.077-53.799-0.08C7.771,50.642,7.905,39.363,7.63,28.095
		c-0.1-4.023,1.231-5.085,5.127-5.039C30.472,23.265,48.189,23.187,65.907,23.212z"/>
	<path fill-rule="evenodd" clip-rule="evenodd" fill="#F3E770" d="M65.9,76.572c0.005,11.486-0.124,22.977,0.093,34.459
		c0.065,3.471-0.977,4.387-4.391,4.355c-17.935-0.166-35.87-0.084-53.805-0.087c-0.026-11.271,0.109-22.546-0.167-33.812
		c-0.099-4.028,1.238-5.085,5.131-5.041C30.473,76.645,48.188,76.558,65.9,76.572z"/>
	<path fill-rule="evenodd" clip-rule="evenodd" fill="#010100" d="M22.413,47.35c-0.605-14.533-0.605-14.533,13.771-14.533
		c0.403,0,0.808,0,1.212,0c14.375,0,14.375,0,13.83,14.526c-1.485,1.322-3.087,1.388-4.777,0.45
		c-0.271-0.29-0.582-0.586-0.703-0.956c-2.338-7.052-6.332-9.138-13.688-7.299c-1.813,0.454-2.772,1.409-3.107,3.182
		c-0.331,1.759-0.352,3.632-1.705,5.061C25.53,48.752,23.917,48.65,22.413,47.35z"/>
	<path fill-rule="evenodd" clip-rule="evenodd" fill="#FEFEFC" d="M22.413,47.35c1.564-0.061,3.13-0.121,4.693-0.183
		c6.475-2.518,12.948-2.568,19.422,0.005c1.566,0.056,3.133,0.112,4.698,0.17c0.46,2.971,0.197,5.087-3.8,4.959
		c-7.063-0.225-14.143-0.226-21.205,0.001C22.227,52.432,21.956,50.323,22.413,47.35z"/>
	<path fill-rule="evenodd" clip-rule="evenodd" fill="#020201" d="M22.409,100.734C21.809,86.2,21.809,86.2,36.181,86.2
		c0.404,0,0.808,0,1.213,0c14.375,0,14.375,0,13.836,14.525c-1.503,1.277-3.105,1.358-4.79,0.406
		c-0.268-0.291-0.579-0.589-0.699-0.958c-2.324-7.045-6.316-9.128-13.681-7.292c-1.813,0.453-2.774,1.404-3.108,3.175
		c-0.332,1.759-0.353,3.631-1.699,5.063C25.545,102.104,23.931,101.992,22.409,100.734z"/>
	<path fill-rule="evenodd" clip-rule="evenodd" fill="#FCFCFB" d="M46.525,100.543c1.569,0.061,3.137,0.121,4.704,0.182
		c0.434,2.952,0.217,5.095-3.8,4.96c-7.064-0.233-14.147-0.236-21.212,0.001c-4.018,0.137-4.236-2.003-3.81-4.952
		c1.566-0.064,3.133-0.13,4.698-0.195C33.58,97.982,40.054,97.932,46.525,100.543z"/>
	<path fill-rule="evenodd" clip-rule="evenodd" fill="#7F7F01" d="M46.528,47.172c-6.475-0.001-12.948-0.002-19.422-0.005
		c0.064-9.474,0.064-9.474,9.404-9.474c0.198,0,0.397,0,0.597,0C46.45,37.693,46.45,37.693,46.528,47.172z"/>
	<path fill-rule="evenodd" clip-rule="evenodd" fill="#7F7F01" d="M46.525,100.543c-6.473-0.002-12.946-0.003-19.419-0.005
		c0.071-9.463,0.071-9.463,9.404-9.463c0.199,0,0.397,0,0.597,0C46.448,91.075,46.448,91.075,46.525,100.543z"/>
</g>
</svg>
